<?xml version="1.0" encoding="utf-8"?>
<!-- Generator: Adobe Illustrator 24.0.1, SVG Export Plug-In . SVG Version: 6.00 Build 0)  -->
<svg version="1.1" id="Adesivo1" xmlns="http://www.w3.org/2000/svg" xmlns:xlink="http://www.w3.org/1999/xlink" x="0px" y="0px"
	 viewBox="0 0 1366 768" style="enable-background:new 0 0 1366 768;" xml:space="preserve">
<style type="text/css">
	.st0{fill:#861B1C;}
	.st1{fill:#0257A7;}
	.st2{fill:#ED1C24;}
</style>
<path id="Interno" class="st0" d="M1235.67,383.15c-19.86,12.48-39.57,25.21-59.64,37.35c-11.75,7.11-25.02,10.16-38.67,9.93
	c-76.72-1.28-151.98,10.4-226.92,25.06c-1.54,0.3-3.14,0.33-4.71,0.48c-9.94,1.75-19.86,3.92-29.94,0.84
	c-41.26-7.7-82.84-13.45-124.13-20.94c-22.29-4.04-44.79-7.03-67.18-10.59c-31.8-5.05-63.65-9.77-95.44-14.96
	c-16.39-2.68-32.87-5.12-49.38-7.03c-17.82-2.06-35.34-5.96-53.26-7.54c-20.22-1.78-40.28-5.32-60.35-8.54
	c-3.81-0.61-9.67-0.45-9.49-4.9c0.15-3.94,5.99-3,9.52-3.26c44.21-3.29,88.5-4.73,132.77-6.78c42.98-1.99,85.97-2.7,128.92-4.68
	c19.81-0.91,39.58-0.61,59.36-1.23c39.85-1.26,79.71-1.51,119.57-1.84c11.58-0.1,23.11-0.87,34.72,0.18
	c14.26,1.29,28.46-1.57,42.7-1.42c31.94,0.34,63.87,1.13,95.79,1.8c63.86,1.34,127.55,6.03,190.94,14.25
	c0.79,0.1,1.54,0.35,2.31,0.56C1234.59,380.54,1235.89,381.26,1235.67,383.15z"/>
<path id="Esterno" class="st1" d="M674.32,514c-16.68,8-18.68,9-18.68,9s-11.58-0.59-27.79-3.3C611.64,517,435.64,489,435.64,489
	l-181.96-25.85L128.64,446l261-33L756,483"/>
<path id="Fora" class="st2" d="M868.32,461.13c4.48-1.23,7.74-1.86,8.99-6.54c-2.36-0.23-4.81-0.12-7.05-0.75
	c-15.96-4.45-32.47-5.77-48.69-8.75c-21.66-3.98-43.48-7.12-65.22-10.7c-16.7-2.75-33.36-5.74-50.07-8.42
	c-11.39-1.83-22.86-3.19-34.26-5c-15.29-2.43-30.51-5.26-45.81-7.6c-24.36-3.71-48.77-7.13-73.15-10.71
	c-17.39-2.55-34.72-5.94-52.11-7.93c-22.17-2.53-44.28-5.37-66.3-8.82c-5.64-0.88-12.08,0.52-17.66-3.55
	c26.4-3.47,52.44-3.39,78.34-5.37c33.06-2.53,66.26-2.43,99.38-4.38c35.2-2.08,70.57-1.86,105.85-3.45
	c29.5-1.33,59.05-0.43,88.59-1.45c41.05-1.42,82.19-0.37,123.29-0.57c22.09-0.11,44.14-0.85,66.28-0.44
	c52.7,0.98,105.38,2,157.98,5.47c14.4,0.95,28.73,2.83,43.1,4.23c18.02,1.75,36.04,3.43,54.07,5.14c0,0,0,0,0,0
	c0.6,0.54,1.19,1.09,1.78,1.63c7.52-4.45,14.96-9,20.66-15.83c-1.35-5.16-5.94-4.12-9.54-4.98c-36.07-11.64-73.4-16.54-110.89-20.17
	c-45.66-4.41-91.54-5.2-137.37-5.97c-44.06-0.74-88.14-0.18-132.21-0.27c-7.61-0.01-15.22,1.99-22.83,0.08
	c-4.97,0.8-9.96,0.31-14.95,0.28c-30.03,0.87-60.06,1.74-90.09,2.6c27.57-5.89,55.26-10.3,82.97-14.65
	c19.19-3.02,38.39-5.96,57.59-8.94c4.42-0.38,8.84-0.71,13.25-1.15c16.61-1.67,32.99-5.4,49.77-5.65c1.8-0.74,3.6-1.49,6.41-2.65
	c-6.93-1.78-13.1,0.48-18.78-1.86c-15.01,0.46-30.01,0.93-45.02,1.37c-16.78,0.49-33.58,0.81-50.23,3.22c0,0,0,0,0,0
	c-16.64-0.1-33.17,1.68-49.72,2.99c-42.57,3.38-85.15,6.62-127.7,10.31c-56.71,4.92-113.4,10.07-170.07,15.4
	c-32.01,3.01-64,6.34-95.95,9.94c-43.97,4.96-87.9,10.32-131.85,15.5c-25.91,3.05-51.82,6.07-77.73,9.1
	c-10.64,0.96-21.28,1.93-31.92,2.89c0.56,0.15,1.11,0.3,1.67,0.45L149,375l4.6,0.86c9.85,2.66,19.53,5.11,29.51,5.53l4.39,0.82
	c1.28,0.33,2.56,0.63,3.86,0.84c1.33,0.21,2.67,0.42,4,0.63L741,486"/>
</svg>
