<?xml version="1.0" encoding="utf-8"?>
<!-- Generator: Adobe Illustrator 24.0.1, SVG Export Plug-In . SVG Version: 6.00 Build 0)  -->
<svg version="1.1" id="Adesivo1" xmlns="http://www.w3.org/2000/svg" xmlns:xlink="http://www.w3.org/1999/xlink" x="0px" y="0px"
	 viewBox="0 0 1366 768" style="enable-background:new 0 0 1366 768;" xml:space="preserve">
<g id="LOGOTIPO">
	<path d="M556.6,529c-14.8,0-29.7,0-44.5,0c-1.7,0-2.2-0.8-2.6-2.1c-2.4-7.6-6.6-13.9-12.3-19.5c-9.3-9-18.1-18.6-27.6-27.3
		c-12-11-23.1-22.8-34.7-34.1c-6-5.8-10.9-12.3-14.4-19.9c-7.3-15.7-4.8-32.2,7.1-44.8c5.8-6.1,12.4-11,20.3-14.3
		c50.6-21,101.2-42.1,152.1-62.4c44.8-17.8,89.5-35.7,134.4-53.3c44.1-17.3,87.7-36,131.3-54.3c38.4-16.1,75.6-34.8,113.4-52.3
		c1.1-0.5,2.1-1.1,3.2-1.5c1-0.3,2.1-1.6,3.2-0.5c0.9,1,0.1,2.2-0.2,3.3c-5.7,18-13.1,35.3-22.2,51.8c-6.7,12.1-17.3,20-29.3,26.3
		c-11.3,5.9-23.5,9.5-35.5,13.7c-53,18.8-106,37.4-159,56.1c-44.9,15.8-89.8,31.6-134.7,47.5c-44.7,15.7-89.3,31.5-134,47.1
		c-6.4,2.2-12.7,4.3-18.2,8.3c-10.1,7.3-12,19.1-4.2,29c5.2,6.7,11.8,12.1,18.2,17.7c8.3,7.2,16.1,14.8,24.1,22.2
		c21.4,20,42.7,40.1,64.1,60.2c0.8,0.8,1.8,1.4,2.8,2C557.1,528.3,556.8,528.6,556.6,529z"/>
	<path d="M575.3,404.4c-17.2,4.6-34.2,9-51.1,13.5c-17.6,4.7-35.2,9.3-52.8,14c-2.4,0.7-4.3,0.3-6-1.5c-1.8-1.9-3.7-3.6-5.6-5.4
		c-9-8.6-6.6-19.9,5.4-24c15.6-5.3,31.3-10.3,46.9-15.4c28.6-9.4,57.2-18.7,85.8-28c45.2-14.7,90.3-29.6,135.5-44
		c44.9-14.3,89.5-29.4,134.3-44.2c24.7-8.1,49.2-16.6,73.4-26c1.1-0.4,2.4-1.4,3.6-0.3c0.7,0.8,0.1,1.8-0.3,2.6
		c-7.2,13.9-14.1,28-23.2,40.8c-10.5,14.9-24.5,24.4-42.4,29c-46.5,12-92.9,24.6-139.4,37c-45,12-89.9,24-134.9,36
		c-8.6,2.3-17.3,4.5-25.9,6.8C573.2,396.8,572.3,399.3,575.3,404.4z"/>
	<path d="M628.3,436.9c-8.4,1.6-16.6,3.2-24.9,4.8c-19,3.6-37.9,7.1-56.9,10.6c-14.7,2.8-29.3,5.5-44,8.4c-2.2,0.4-3.7,0-5.3-1.5
		c-7.2-6.9-14.5-13.6-22.3-20.9c8.1-2.1,15.5-4.1,22.9-6c33.2-8.6,66.5-17.1,99.7-25.7c45.2-11.6,90.3-23.3,135.5-34.9
		c44.8-11.5,89.7-23,134.6-34.5c9.1-2.3,18.2-4.6,27.3-6.8c0.9-0.2,1.9-0.7,2.6,0.2c0.7,0.8,0,1.6-0.5,2.2
		c-7.2,11.1-13.5,22.7-22.3,32.6c-10.9,12.3-24,20.5-40.7,23.4c-24.3,4.2-48.5,9.2-72.7,13.9c-37.5,7.2-75,14.5-112.5,21.7
		c-5.5,1.1-11.1,2.1-16.6,3.2C625.5,428.9,624.7,431,628.3,436.9z"/>
	<path d="M844.3,404.7c-3.7,4.4-7.3,8.8-11,13.2c-6,7.1-12.1,14.1-19.1,20.3c-10.8,9.5-23.9,13.2-37.7,15.2
		c-27.7,3.9-55.4,7.9-83.1,11.9c-6.2,0.9-7.5,3.5-4.5,9.1c-21,2.6-42.1,5.3-63.1,7.9c-28.1,3.5-56.3,6.9-84.4,10.5
		c-4.3,0.5-7.7,0.3-11.1-3.1c-7.1-7.2-14.8-13.8-22.3-20.7c-0.6-0.5-1.4-0.8-2.2-1.2c0.2-0.4,0.4-0.8,0.6-1.1
		c112.5-21,225-42,337.4-63C844,404,844.1,404.3,844.3,404.7z"/>
	<path d="M542.4,499.9c9.5-1.1,18.9-2.3,28.4-3.4c23.5-2.7,47-5.5,70.5-8.2c18.8-2.2,37.6-4.4,56.5-6.6c2.6-0.3,4.7,0.2,7,1.6
		c9.9,6.3,19.8,12.8,30,18.7c14.2,8.2,27.7,17.3,41.8,25.7c0.3,0.2,0.5,0.5,1.5,1.3c-1.9,0-3.1,0-4.3,0c-65.7,0-131.5,0-197.2,0.1
		c-2.9,0-5.1-0.8-7.2-2.8c-8.2-7.9-16.6-15.7-24.9-23.5c-0.8-0.7-1.7-1.2-2.6-1.8C542,500.6,542.2,500.2,542.4,499.9z"/>
</g>
<g id="TIPOGRAFIA">
	<path d="M811.5,537.5c10.7,0.5,23.5-0.9,36.3,0.6c8.5,1,16.4,3.8,23.1,8.9c9.1,6.9,11.7,16.7,10.5,27.7
		c-1.6,14.9-13.1,24.2-28.8,27.1c-4.9,0.9-9.8,1.3-14.7,1.3c-20.6,0-41.2-0.1-61.8,0.1c-2.7,0-3.4-0.8-3.3-3.4
		c0.1-5.2,0-5.2,5.1-5.8c7.1-0.8,8.4-2.3,8.4-9.4c0-9.7,0.1-19.3,0-29c0-6.4-1.2-7.6-7.4-8.4c-0.1,0-0.2,0-0.4,0
		c-5.6-0.8-6.7-2.4-5.6-8.1c0.4-2.1,1.8-1.5,3-1.5C787,537.5,798.2,537.5,811.5,537.5z M825.3,590.5
		C825.3,590.5,825.3,590.5,825.3,590.5c3.6-0.1,7.3,0.1,10.9-0.1c7.8-0.3,12.3-4.2,13.8-12c1-5.1,0.9-10.3,0-15.4
		c-1.6-8.5-6.1-12.6-14.7-12.8c-7-0.2-14.1,0-21.2-0.1c-2.3,0-2.7,0.9-2.7,2.9c0.1,11.6,0.1,23.3,0,34.9c0,2,0.6,2.7,2.6,2.7
		C817.8,590.4,821.6,590.5,825.3,590.5z"/>
	<path d="M972,603c-8.2,0-16.5-0.1-24.7,0c-2.6,0-3.8-0.5-3.6-3.5c0.3-5.4,0.1-5.3,5.3-6c2.3-0.3,5.5,0.6,6.4-2.4
		c0.8-2.9-1.9-4.8-3.2-7.1c-0.6-1.1-1.7-1-2.8-1c-11.9,0-23.8-0.1-35.7-0.1c-2.7,0-6.8,5.5-6.1,8.1c0.3,1.2,1.2,1.8,2.2,2
		c1.5,0.4,3,0.9,4.5,0.8c3-0.1,4.1,1,3.9,4.1c-0.3,5.5,0.7,5-5.2,5c-11,0-21.9-0.1-32.9,0c-2.6,0-4.1-0.6-3.6-3.5
		c0.1-0.9,0.1-1.9,0-2.8c-0.2-2.1,0.5-3,2.7-2.9c6.1,0.3,10.1-2.3,13.1-7.8c5.9-10.7,12.7-20.9,19.1-31.3c2.6-4.2,1.5-6.5-3.5-7.2
		c-1.5-0.2-3.1-0.3-4.6-0.5c-5.2-0.7-6.3-2.3-5.2-7.7c0.4-2.2,2-1.6,3.3-1.6c13.5,0,27.1,0.5,40.6-0.2c7.6-0.4,11.8,2.4,15.6,8.6
		c8.3,13.5,17.5,26.5,25.9,40c3.2,5.2,7.2,7.9,13.1,7.8c5.3-0.1,3,3.8,3.4,6.3c0.5,3.2-1.9,2.8-3.9,2.8C988.3,603,980.2,603,972,603
		C972,603,972,603,972,603z M930.8,551.7c-4,6.4-7.5,12.2-11.1,17.9c-0.9,1.4-0.4,1.9,1.1,1.9c6.9,0,13.9,0,20.8,0
		c1.7,0,2.1-0.5,1.1-2.1C938.8,563.7,935,557.9,930.8,551.7z"/>
	<path d="M681.2,556.1c0,5.5,0,11,0,16.4c0,4.8,0,9.7,0.1,14.5c0.1,4.2,1.5,5.7,5.6,6.3c1.4,0.2,2.8,0.7,4.2,0.6
		c3.1-0.2,3.6,1.3,3.5,4c-0.2,6.3,0.4,5.1-5,5.2c-11.2,0.1-22.4,0-33.6,0.1c-2.4,0-4-0.4-3.5-3.3c0.4-2.3-1.7-6.2,3.4-5.9
		c1.5,0.1,3-0.3,4.5-0.5c3.2-0.5,5.1-2.3,5.1-5.7c0-11.7,0-23.3,0-35c0-3.2-1.9-4.7-4.6-5.4c-1-0.3-2.1-0.1-3.1-0.4
		c-1.7-0.5-4.3,0.5-4.9-1.1c-0.8-2.1-0.4-4.6-0.3-7c0-1.5,1.3-1.4,2.3-1.4c14.1,0,28.3,0,42.4,0c3.7,0,6,2,8.1,4.8
		c8.9,11.7,17.9,23.3,26.7,35.1c2,2.7,4.5,5,6.7,7.6c1.2-0.8,0.7-1.8,0.7-2.6c0-9.3,0.1-18.6,0-27.9c0-5.1-1.2-6.4-6.2-7.1
		c-0.6-0.1-1.2-0.1-1.8-0.2c-6.4-0.8-6.3-0.8-6.1-7.2c0.1-1.9,0.9-2.4,2.6-2.4c12.6,0,25.2,0.1,37.8,0c2.1,0,2.7,0.8,2.6,2.7
		c-0.1,1.2-0.1,2.4,0,3.5c0.2,2-0.9,2.6-2.7,2.8c-10.6,1.4-10.6,1.4-10.6,12c0,13.7-0.1,27.3,0.1,41c0,2.6-0.6,3.5-3.3,3.4
		c-9.5-0.1-19.1-0.1-28.6,0c-3.7,0-6.2-1.4-8.3-4.3c-9.8-13.1-19.8-26.1-29.7-39.1c-1-1.4-2.2-2.6-3.3-3.9
		C681.8,555.9,681.5,556,681.2,556.1z"/>
	<path d="M597.5,605.4c-13.5-0.1-25-1-35.8-5.7c-19-8.3-25.7-28.7-15.2-46c4.6-7.5,11.9-11.4,19.8-13.8c20.9-6.4,41.8-6.3,62.3,1.4
		c18.1,6.8,25.9,26.8,17.5,43.4c-4.7,9.3-13.2,14.1-22.7,17.1C614.3,604.7,605,605.6,597.5,605.4z M594.9,593.5
		c3.1-0.1,6.1-0.2,9.1-0.8c6.4-1.2,11-4.7,13.1-10.9c2.5-7.2,2.7-14.5,0.2-21.8c-2.1-6.3-6.5-10.3-13.1-11.6
		c-6-1.2-12.1-1.3-18.2,0.2c-7.1,1.8-11.4,6.2-13.2,13.2c-1.3,5.1-1.2,10.3-0.3,15.4c1.7,9.3,6.7,14.3,16,15.8
		C590.6,593.4,592.8,593.3,594.9,593.5z"/>
	<path d="M512.8,602.9c-7.7,0-15.3-0.1-23,0.1c-2.4,0-3.5-0.7-3.2-3.2c0.1-0.8,0.1-1.7,0-2.5c-0.3-2.3,0.5-3.6,3-3.3
		c1.2,0.1,2.4-0.1,3.5-0.3c5.1-0.9,6.3-2.3,6.5-7.5c0.3-9.2,0.3-9.2-8.8-9.2c-9.7,0-19.3,0.1-29-0.1c-2.7,0-3.6,0.8-3.3,3.4
		c0.2,1.5,0,3.1,0,4.6c-0.1,6.8,1.2,8.2,8,8.9c0.4,0,0.7,0,1.1,0.1c1.5,0.4,3.9-0.7,4.4,1.1c0.6,2.2,0.3,4.7,0.1,7
		c-0.1,1.2-1.5,0.9-2.4,0.9c-15.9,0-31.8,0-47.7,0c-2,0-2.8-0.7-2.7-2.6c0.1-1.3,0.1-2.6,0-3.9c-0.1-1.6,0.6-2.3,2.3-2.4
		c12.4-0.6,10.6-4.1,10.7-12.1c0-9,0-17.9,0-26.9c0-5.7-1-6.8-6.8-7.9c-1-0.2-2.1-0.6-3.1-0.5c-2.5,0.1-3.2-1.2-3.1-3.5
		c0.2-6.5-0.4-5.5,5.5-5.5c14.7-0.1,29.4,0,44.2-0.2c2.6,0,3.5,0.7,3.4,3.4c-0.1,5.2,0,5.2-5.3,5.9c-7.5,1-8.5,2.1-8.5,9.7
		c0,7.2,0,7.2,7.2,7.2c10.2,0,20.5-0.1,30.7,0.1c2.5,0,3.7-0.5,3.4-3.3c-0.3-2.3-0.1-4.7-0.3-7.1c-0.2-4-1.6-5.4-5.5-6
		c-1.5-0.2-3-0.6-4.5-0.7c-2.3-0.1-3-1.1-2.9-3.3c0.3-6.7-1-5.7,5.8-5.7c14.2-0.1,28.5,0.1,42.7-0.1c2.8,0,4,0.5,3.8,3.6
		c-0.2,5.2,0,5.2-5.1,6c-7.2,1-7.9,1.7-7.9,8.9c0,9.8,0,19.6,0,29.3c0,6.5,0.6,7.2,7,8.2c0.3,0.1,0.7,0.1,1,0.2
		c4.6,0.7,6.1,3.1,4.9,7.8c-0.5,1.8-1.8,1.2-2.8,1.2c-7.8,0-15.5,0-23.3,0C512.8,602.9,512.8,602.9,512.8,602.9z"/>
</g>
</svg>
